<svg xmlns="http://www.w3.org/2000/svg" viewBox="0 0 489.91 489.91"  xmlns:v="https://vecta.io/nano"><path d="M155.28 217.706V482.4h77.854L342.13 365.63l62.283-.365v59.542c0 31.457 25.5 56.958 56.958 56.958h5.325V163.51L155.28 217.706z" fill="#b17f4a"/><path d="M443.34 163.208h23.356v319.03H443.34z" fill="#ca9e67"/><path d="M186.29 195.4l.133-1.06-62.283-7.785-31.142-23.356-31.142-38.927 23.356-85.64-38.927 31.14-15.57 54.498 7.785 54.498 31.142 38.927 38.927 31.142 63.467 7.052c2.132.46 4.332.734 6.602.734 17.2 0 31.142-13.943 31.142-31.142 0-14.543-10.012-26.657-23.49-30.082z" fill="#fff"/><path d="M342.8 318.917h23.356v46.713H342.8zm-78.534-31.142H240.92v-46.713h70.068zM155.28 412.342h31.142v70.07H155.28zm61.998-70.355l-67.622.286-.205-30.856h68.113z" fill="#ca9e67"/><g fill="#1d1d1b"><path d="M178.786 262.936h-24.104c-72.492 0-131.47-58.977-131.47-131.468S82.19 0 154.682 0v.01l1.346-.01v15c-47.132 0-85.476 38.344-85.476 85.476s38.344 85.476 85.476 85.476h22.758c21.225 0 38.492 17.268 38.492 38.492s-17.267 38.492-38.492 38.492zM65.8 56.27c-17.208 20.305-27.597 46.56-27.597 75.198 0 64.22 52.248 116.468 116.47 116.468h24.104c12.954 0 23.492-10.538 23.492-23.492s-10.538-23.492-23.492-23.492h-22.758c-55.402 0-100.476-45.073-100.476-100.476.001-15.853 3.69-30.86 10.258-44.206z"/><path d="M140.294 212.316h15v43.12h-15zm-27.548 10.78h15v26.95h-15zm114.072-5.822l-2.942-14.7 233.57-46.7 2.942 14.7zm-9.254 94.143h-38.927v15h7.785v15.57h15.57v-15.57h15.572zm23.396-16.143l-.078-15c18.235-.095 34.514-11.703 44.958-21.424 3.82-3.558 7.15-7.1 9.903-10.288H240.92v-15h83.853l-7.487 11.573c-1.32 2.04-32.787 49.913-76.327 50.14zm170.954 124.853V358.13H349.63v-39.212h-15v43.756L229.876 474.9H162.78V272.204h-15V489.9h88.613l108.995-116.78h51.525v46.998c0 38.478 31.305 69.783 69.783 69.783v-15c-30.207 0-54.782-24.575-54.782-54.783z"/><path d="M178.922 451.27h15v25.356h-15z"/></g></svg>